<svg width="64" height="64" viewBox="0 0 64 64" fill="none" xmlns="http://www.w3.org/2000/svg">
<path d="M64 32C64 49.6731 49.6731 64 32 64C14.3269 64 0 49.6731 0 32C0 14.3269 14.3269 0 32 0C49.6731 0 64 14.3269 64 32ZM9.6 32C9.6 44.3712 19.6288 54.4 32 54.4C44.3712 54.4 54.4 44.3712 54.4 32C54.4 19.6288 44.3712 9.6 32 9.6C19.6288 9.6 9.6 19.6288 9.6 32Z" fill="#94A3B8" fill-opacity="0.1"/>
<path d="M62.6085 25.5C62.6085 27.7091 59.8179 31.5 57.6087 31.5C55.3996 31.5 56.1082 28.7091 56.1082 26.5C56.1082 24.2909 56.3997 21 58.6089 21C60.818 21 62.6085 23.2909 62.6085 25.5Z" fill="#64748B"/>
<path d="M56 17.5C56 18.8807 55.8807 21 54.5 21C53.1193 21 51 18.8807 51 17.5C51 16.1193 51.6193 15 53 15C54.3807 15 56 16.1193 56 17.5Z" fill="#64748B"/>
<path d="M61.5 32C62.8807 32 64.0117 33.1211 63.9429 34.5001C63.7306 38.7529 62.9281 40.9531 61.5641 44.2459C59.956 48.1283 57.9715 52.0285 55 55C52.0285 57.9715 48.3824 60.8918 44.5 62.5C42.0799 63.5024 39.4528 63.838 36.7993 63.9485C34.1507 64.0589 32 61.851 32 59.2V59.2C32 56.549 34.1646 54.4009 36.7651 53.8859C38.4564 53.5509 40.1224 53.0706 41.5 52.5C44.2177 51.3743 47 49.5 49.5 47.5C52 45.5 53.2743 43.8761 55 41C56.1013 39.1645 57.7417 36.7584 58.5359 34.4448C58.9842 33.1388 60.1193 32 61.5 32V32Z" fill="#64748B"/>
</svg>
