<svg width="30" height="9" viewBox="0 0 30 9" fill="none" xmlns="http://www.w3.org/2000/svg">
<path d="M3.576 8.88C3.096 8.88 2.668 8.772 2.292 8.556C1.916 8.34 1.62 8.044 1.404 7.668V8.76H0V0H1.608V3.576C1.832 3.2 2.124 2.904 2.484 2.688C2.852 2.472 3.28 2.364 3.768 2.364C4.176 2.364 4.548 2.452 4.884 2.628C5.22 2.796 5.508 3.032 5.748 3.336C5.996 3.64 6.184 3.988 6.312 4.38C6.448 4.772 6.516 5.192 6.516 5.64C6.516 6.088 6.44 6.508 6.288 6.9C6.144 7.292 5.94 7.64 5.676 7.944C5.412 8.24 5.1 8.472 4.74 8.64C4.388 8.8 4 8.88 3.576 8.88ZM3.132 7.512C3.388 7.512 3.62 7.464 3.828 7.368C4.044 7.264 4.228 7.128 4.38 6.96C4.54 6.792 4.66 6.596 4.74 6.372C4.828 6.14 4.872 5.9 4.872 5.652C4.872 5.308 4.8 4.992 4.656 4.704C4.52 4.408 4.328 4.172 4.08 3.996C3.84 3.82 3.556 3.732 3.228 3.732C2.996 3.732 2.772 3.788 2.556 3.9C2.348 4.004 2.16 4.148 1.992 4.332C1.832 4.516 1.704 4.724 1.608 4.956V6.456C1.656 6.616 1.732 6.76 1.836 6.888C1.948 7.016 2.076 7.128 2.22 7.224C2.364 7.312 2.512 7.384 2.664 7.44C2.824 7.488 2.98 7.512 3.132 7.512ZM7.36747 8.76C7.36747 8.37 7.3978 8.019 7.45847 7.707C7.51914 7.395 7.62314 7.10467 7.77047 6.836C7.92647 6.56733 8.13447 6.316 8.39447 6.082C8.66314 5.83933 9.00114 5.60533 9.4085 5.38C9.7638 5.18933 10.0758 5.02467 10.3445 4.886C10.6131 4.73867 10.8385 4.60433 11.0205 4.483C11.2111 4.36167 11.3541 4.24033 11.4495 4.119C11.5448 3.989 11.5925 3.84167 11.5925 3.677C11.5925 3.50367 11.5448 3.34767 11.4495 3.209C11.3541 3.06167 11.2198 2.94467 11.0465 2.858C10.8731 2.77133 10.6565 2.728 10.3965 2.728C10.1885 2.728 9.9935 2.754 9.8115 2.806C9.6381 2.858 9.4735 2.93167 9.3175 3.027C9.17014 3.12233 9.03147 3.23067 8.90147 3.352C8.77147 3.46467 8.65447 3.586 8.55047 3.716L7.44547 2.442C7.5668 2.32067 7.72714 2.19067 7.92647 2.052C8.13447 1.90467 8.37714 1.77033 8.65447 1.649C8.94047 1.519 9.25247 1.415 9.5905 1.337C9.9371 1.25033 10.3055 1.207 10.6955 1.207C11.2848 1.207 11.7875 1.30233 12.2035 1.493C12.6195 1.675 12.9358 1.93067 13.1525 2.26C13.3778 2.58933 13.4905 2.975 13.4905 3.417C13.4905 3.72033 13.4341 3.989 13.3215 4.223C13.2088 4.457 13.0658 4.665 12.8925 4.847C12.7191 5.02033 12.5285 5.17633 12.3205 5.315C12.1211 5.45367 11.9261 5.575 11.7355 5.679C11.4668 5.81767 11.2241 5.94767 11.0075 6.069C10.7908 6.18167 10.6001 6.29867 10.4355 6.42C10.2708 6.53267 10.1235 6.64967 9.9935 6.771C9.8721 6.89233 9.7638 7.031 9.6685 7.187H13.6335V8.76H7.36747ZM18.5194 8.88C18.0394 8.88 17.6114 8.772 17.2354 8.556C16.8594 8.34 16.5634 8.044 16.3474 7.668V8.76H14.9434V0H16.5514V3.576C16.7754 3.2 17.0674 2.904 17.4274 2.688C17.7954 2.472 18.2234 2.364 18.7114 2.364C19.1194 2.364 19.4914 2.452 19.8274 2.628C20.1634 2.796 20.4514 3.032 20.6914 3.336C20.9394 3.64 21.1274 3.988 21.2554 4.38C21.3914 4.772 21.4594 5.192 21.4594 5.64C21.4594 6.088 21.3834 6.508 21.2314 6.9C21.0874 7.292 20.8834 7.64 20.6194 7.944C20.3554 8.24 20.0434 8.472 19.6834 8.64C19.3314 8.8 18.9434 8.88 18.5194 8.88ZM18.0754 7.512C18.3314 7.512 18.5634 7.464 18.7714 7.368C18.9874 7.264 19.1714 7.128 19.3234 6.96C19.4834 6.792 19.6034 6.596 19.6834 6.372C19.7714 6.14 19.8154 5.9 19.8154 5.652C19.8154 5.308 19.7434 4.992 19.5994 4.704C19.4634 4.408 19.2714 4.172 19.0234 3.996C18.7834 3.82 18.4994 3.732 18.1714 3.732C17.9394 3.732 17.7154 3.788 17.4994 3.9C17.2914 4.004 17.1034 4.148 16.9354 4.332C16.7754 4.516 16.6474 4.724 16.5514 4.956V6.456C16.5994 6.616 16.6754 6.76 16.7794 6.888C16.8914 7.016 17.0194 7.128 17.1634 7.224C17.3074 7.312 17.4554 7.384 17.6074 7.44C17.7674 7.488 17.9234 7.512 18.0754 7.512Z" fill="#02274F"/>
<path d="M22.5488 8.76001V2.47201H24.1568V8.76001H22.5488ZM29.3754 8.43601C29.2394 8.49201 29.0754 8.55601 28.8834 8.62801C28.6914 8.70001 28.4834 8.75601 28.2594 8.79601C28.0434 8.84401 27.8234 8.86801 27.5994 8.86801C27.3034 8.86801 27.0314 8.81601 26.7834 8.71201C26.5354 8.60801 26.3354 8.44401 26.1834 8.22001C26.0394 7.98801 25.9674 7.68801 25.9674 7.32001V3.70801H25.1394V2.47201H25.9674V0.432007H27.5754V2.47201H28.8954V3.70801H27.5754V6.78001C27.5834 6.99601 27.6434 7.15201 27.7554 7.24801C27.8674 7.34401 28.0074 7.39201 28.1754 7.39201C28.3434 7.39201 28.5074 7.36401 28.6674 7.30801C28.8274 7.25201 28.9554 7.20401 29.0514 7.16401L29.3754 8.43601Z" fill="#FDCF00"/>
</svg>
